PathFileType	4	(X/Y/Z)	G:\GRF\jawan data\CompiledGRF\03. Mohit Kumar\0231~ac~Walking 09_markers.trc
DataRate	CameraRate	NumFrames	NumMarkers	Units	OrigDataRate	OrigDataStartFrame	OrigNumFrames
100.000000	100.000000	11	18	mm	100.000000	525	840
Frame#	Time	c7			r should			l should			sacrum			r asis			r bar 1			r knee 1			r bar 2			r mall			r heel			r met			l asis			l bar 1			l knee 1			l bar 2			l mall			l heel			l met			
		X1	Y1	Z1	X2	Y2	Z2	X3	Y3	Z3	X4	Y4	Z4	X5	Y5	Z5	X6	Y6	Z6	X7	Y7	Z7	X8	Y8	Z8	X9	Y9	Z9	X10	Y10	Z10	X11	Y11	Z11	X12	Y12	Z12	X13	Y13	Z13	X14	Y14	Z14	X15	Y15	Z15	X16	Y16	Z16	X17	Y17	Z17	X18	Y18	Z18	

526	5.25	1493.182983398438	1505.104248046875	228.7487945556641	1541.45361328125	1463.0419921875	392.899169921875	1542.531982421875	1468.432739257813	69.04669189453125	1387.116088867188	1053.602416992188	224.4581298828125	1558.913696289063	1009.966857910156	348.7913208007813	1565.459228515625	602.4501953125	440.3799743652344	1599.685180664063	522.7017211914063	400.7397766113281	1346.900146484375	333.073486328125	420.831298828125	1259.122314453125	230.6456146240234	362.8418273925781	1196.33251953125	248.2331848144531	310.004150390625	1326.876098632813	99.06475830078125	357.3375244140625	1566.509033203125	1020.446044921875	101.7473754882813	1547.521118164063	591.3982543945313	60.26181793212891	1564.016845703125	510.9853820800781	125.9794692993164	1517.225219726563	229.4493255615234	91.49596405029297	1497.098510742188	65.56069946289063	170.2921600341797	1427.901611328125	31.42194747924805	213.9691619873047	1638.78564453125	32.92075347900391	210.2772674560547	
527	5.26	1502.9013671875	1506.078857421875	228.6123199462891	1550.232421875	1463.775634765625	392.7654724121094	1552.05908203125	1469.64794921875	69.07501220703125	1397.161987304688	1054.054931640625	224.7754516601563	1569.206298828125	1011.57763671875	348.0421142578125	1584.079711914063	605.3428344726563	440.9998168945313	1618.763427734375	526.0961303710938	400.4024353027344	1370.655883789063	330.1880187988281	421.6661071777344	1285.396850585938	224.940673828125	364.0314331054688	1221.771728515625	239.1131744384766	311.1651916503906	1359.199462890625	97.32008361816406	359.99365234375	1575.078369140625	1020.814392089844	100.9031677246094	1550.123291015625	591.402099609375	59.95382690429688	1566.189086914063	510.6182556152344	125.4233856201172	1517.04150390625	229.393310546875	91.31584930419922	1497.170043945313	65.66011810302734	170.3850250244141	1428.338012695313	31.45217514038086	214.2470550537109	1638.890380859375	32.84257125854492	210.1385650634766	
528	5.27	1511.4306640625	1506.8662109375	228.5132141113281	1559.121337890625	1464.27783203125	392.5846557617188	1561.359375	1470.51904296875	69.10514068603516	1406.4169921875	1054.4453125	225.1328887939453	1579.1142578125	1012.966857910156	347.4319152832031	1602.320434570313	608.164794921875	441.3522033691406	1637.423217773438	529.35498046875	400.0563659667969	1394.553833007813	326.6302490234375	422.2870483398438	1312.255004882813	218.4691467285156	365.0687866210938	1246.964599609375	229.6532135009766	311.978271484375	1391.900512695313	95.13398742675781	362.4107971191406	1583.652465820313	1021.075012207031	100.2123947143555	1552.992919921875	591.4017333984375	59.83068084716797	1568.65380859375	510.2676086425781	125.0321578979492	1517.52734375	229.5102844238281	91.33939361572266	1497.325439453125	65.82908630371094	170.4878387451172	1428.782470703125	31.37763977050781	214.5678405761719	1639.05224609375	32.8001823425293	210.0077362060547	
529	5.28	1520.31640625	1507.384521484375	228.4018707275391	1567.845581054688	1464.59521484375	392.4801635742188	1571.128784179688	1471.232177734375	68.98728179931641	1415.619262695313	1054.59521484375	225.49560546875	1588.797119140625	1014.161437988281	346.9147338867188	1620.0205078125	610.9046020507813	441.5460510253906	1655.459228515625	532.3489990234375	399.6581726074219	1418.410766601563	322.3352966308594	422.7126159667969	1339.437255859375	211.4944458007813	365.8297729492188	1272.375854492188	219.5526733398438	312.5342407226563	1424.910034179688	92.52873229980469	364.6846008300781	1592.244750976563	1021.215576171875	99.65284729003906	1556.411743164063	591.449462890625	59.81682968139648	1571.372192382813	509.8538513183594	124.8634796142578	1518.728271484375	229.6960601806641	91.46006774902344	1497.4130859375	65.93379974365234	170.6099243164063	1429.125366210938	31.5188102722168	214.8140716552734	1639.239501953125	32.7451286315918	209.8938751220703	
530	5.29	1530.303466796875	1507.638671875	228.2825012207031	1576.745483398438	1464.723388671875	392.3475646972656	1580.605346679688	1471.668212890625	68.85783386230469	1425.338012695313	1054.46630859375	225.8299255371094	1598.496215820313	1015.193359375	346.5651245117188	1637.146118164063	613.4991455078125	441.5657348632813	1673.053833007813	535.2532958984375	399.2499389648438	1442.297973632813	317.3092651367188	423.0073547363281	1367.052612304688	203.8719635009766	366.4185180664063	1300.187133789063	208.2485198974609	313.1673278808594	1458.04150390625	89.41825103759766	366.6563720703125	1600.80126953125	1021.242858886719	99.22018432617188	1560.38818359375	591.4402465820313	59.87256240844727	1574.362915039063	509.4012756347656	124.8768463134766	1520.248413085938	229.7386474609375	91.57135772705078	1497.432861328125	66.0067138671875	170.6985778808594	1429.327270507813	31.7597770690918	215.1428833007813	1639.31494140625	32.60528564453125	209.8156433105469	
531	5.3	1538.666625976563	1507.7626953125	228.2111663818359	1585.870239257813	1464.716674804688	392.1507263183594	1589.46142578125	1471.744995117188	68.80663299560547	1434.854370117188	1054.264770507813	226.0885314941406	1607.986938476563	1015.936828613281	346.3429260253906	1653.473876953125	615.8814697265625	441.4444885253906	1690.086059570313	537.9444580078125	398.7499084472656	1466.834716796875	311.6571960449219	423.3180541992188	1395.176879882813	195.8600616455078	366.8157043457031	1328.01904296875	196.9531402587891	313.5105895996094	1491.38623046875	85.96872711181641	368.2206420898438	1609.3984375	1021.177795410156	98.87265014648438	1564.640258789063	591.2832641601563	59.98513793945313	1577.635131835938	509.0310668945313	125.0221710205078	1521.713256835938	229.6920166015625	91.69443511962891	1497.578857421875	66.08198547363281	170.7776184082031	1428.127197265625	32.51108551025391	215.3350372314453	1639.455688476563	32.50201034545898	209.7843933105469	
532	5.31	1546.681030273438	1507.775512695313	228.0372009277344	1594.934448242188	1464.565307617188	391.9805297851563	1598.704956054688	1471.662719726563	68.62558746337891	1443.87158203125	1053.94287109375	226.5146942138672	1617.44970703125	1016.452880859375	346.1401062011719	1668.801635742188	617.9076538085938	441.1981506347656	1706.367309570313	540.3106689453125	398.1443786621094	1491.747192382813	305.4643859863281	423.6107482910156	1423.699096679688	187.4251403808594	367.1019592285156	1356.153564453125	185.3314971923828	313.593994140625	1525.003051757813	82.36244964599609	369.4061584472656	1618.106323242188	1020.971435546875	98.53741455078125	1569.26904296875	591.0372924804688	60.13460922241211	1581.328002929688	508.6934509277344	125.1748962402344	1523.136352539063	229.7141876220703	91.74494171142578	1497.763305664063	66.14389038085938	170.8881225585938	1427.933471679688	33.03141021728516	215.5442657470703	1639.600952148438	32.43210601806641	209.7636871337891	
533	5.32	1557.359741210938	1507.61181640625	227.7943267822266	1603.990112304688	1464.226440429688	391.7541809082031	1608.12353515625	1471.418090820313	68.40199279785156	1452.053588867188	1053.768188476563	226.9852905273438	1626.8583984375	1016.68896484375	346.0009155273438	1683.49951171875	619.758056640625	440.8963623046875	1722.207275390625	542.5591430664063	397.4984130859375	1516.707397460938	298.8624572753906	424.0108642578125	1452.830078125	178.7266235351563	367.4605102539063	1384.926513671875	173.583984375	313.8751220703125	1558.761474609375	78.59715270996094	370.1482849121094	1626.900268554688	1020.596984863281	98.25849151611328	1574.442260742188	590.735107421875	60.26025772094727	1585.054443359375	508.3034057617188	125.2473297119141	1524.37353515625	229.7704620361328	91.69131469726563	1497.935302734375	66.28075408935547	170.9423370361328	1429.65673828125	32.71132659912109	215.7846832275391	1639.764038085938	32.33940887451172	209.7266540527344	
534	5.33	1567.043212890625	1507.255126953125	227.5800170898438	1613.370483398438	1463.719360351563	391.5345764160156	1617.557495117188	1471.020874023438	68.18197631835938	1460.502807617188	1053.440185546875	227.4118804931641	1636.030639648438	1016.673217773438	345.9063110351563	1697.240600585938	621.1187133789063	440.3804321289063	1737.510009765625	544.6619873046875	396.8874206542969	1542.0732421875	292.1537475585938	424.4649963378906	1482.621826171875	169.9591674804688	367.9244995117188	1414.473754882813	161.8513946533203	314.3811950683594	1592.792846679688	74.91668701171875	370.3855895996094	1635.635864257813	1020.078430175781	97.97623443603516	1579.871459960938	590.3348388671875	60.33984756469727	1588.770629882813	507.7977294921875	125.316276550293	1525.477416992188	229.7739562988281	91.60890197753906	1498.125	66.42546081542969	170.9922180175781	1431.370849609375	32.36084365844727	216.0921173095703	1639.896118164063	32.25568389892578	209.7350921630859	
535	5.34	1576.484741210938	1506.769653320313	227.3379821777344	1622.545532226563	1463.123046875	391.3148803710938	1626.740234375	1470.38916015625	68.01505279541016	1469.957885742188	1052.884155273438	227.8865814208984	1645.126098632813	1016.448486328125	345.8024291992188	1709.904418945313	621.9992065429688	439.7220458984375	1752.212280273438	546.4545288085938	396.2665710449219	1567.3115234375	285.5336608886719	424.7864990234375	1512.750732421875	161.1145629882813	368.2793579101563	1444.280883789063	150.149169921875	314.9624328613281	1627.25146484375	71.55332183837891	370.0496826171875	1644.269287109375	1019.287475585938	98.06692504882813	1585.406005859375	589.9218139648438	60.3817253112793	1592.523803710938	507.2177124023438	125.3549194335938	1526.533813476563	229.76025390625	91.50245666503906	1498.377197265625	66.56272888183594	171.1310729980469	1431.676513671875	32.6141242980957	216.2077484130859	1640.091796875	32.21075820922852	209.6994323730469	
536	5.350000000000001	1586.578247070313	1506.007934570313	227.1018371582031	1631.879638671875	1462.4033203125	391.1176147460938	1635.834716796875	1469.551025390625	67.86150360107422	1479.22412109375	1052.210571289063	228.2314605712891	1654.212280273438	1016.079406738281	345.7095947265625	1722.264038085938	622.79345703125	439.07568359375	1766.207153320313	547.8406372070313	395.5924377441406	1592.510620117188	278.921142578125	424.9177551269531	1543.317993164063	152.3651123046875	368.5205993652344	1474.710083007813	138.4682464599609	315.4869689941406	1661.817626953125	68.3582763671875	369.4199829101563	1652.63037109375	1018.048522949219	98.80074310302734	1590.824096679688	589.4120483398438	60.36188507080078	1596.305908203125	506.6137390136719	125.2668075561523	1527.67333984375	229.7753753662109	91.41493225097656	1498.623046875	66.73590850830078	171.1636962890625	1432.349731445313	32.6688346862793	216.3893890380859	1640.279907226563	32.1717414855957	209.6423187255859	
